<svg width="10" height="10" viewBox="0 0 10 10" fill="none" xmlns="http://www.w3.org/2000/svg">
<path d="M9.8245 5.42451L6.2245 9.02452C6.11178 9.13723 5.95891 9.20056 5.7995 9.20056C5.64009 9.20056 5.48722 9.13723 5.3745 9.02452C5.26178 8.9118 5.19846 8.75892 5.19846 8.59951C5.19846 8.44011 5.26178 8.28723 5.3745 8.17451L7.95 5.60001H0.6C0.44087 5.60001 0.288258 5.5368 0.175736 5.42428C0.0632141 5.31176 0 5.15914 0 5.00001C0 4.84088 0.0632141 4.68827 0.175736 4.57575C0.288258 4.46323 0.44087 4.40001 0.6 4.40001H7.95L5.3755 1.82401C5.26278 1.7113 5.19946 1.55842 5.19946 1.39901C5.19946 1.23961 5.26278 1.08673 5.3755 0.974014C5.48822 0.861297 5.64109 0.797974 5.8005 0.797974C5.95991 0.797974 6.11278 0.861297 6.2255 0.974014L9.8255 4.57401C9.88145 4.62983 9.92581 4.69615 9.95606 4.76916C9.9863 4.84218 10.0018 4.92044 10.0017 4.99947C10.0016 5.0785 9.98593 5.15673 9.95551 5.22967C9.9251 5.30261 9.88058 5.36883 9.8245 5.42451Z" fill="black"/>
</svg>
